<svg width="20" height="20" viewBox="0 0 20 20" fill="none" xmlns="http://www.w3.org/2000/svg">
  <path d="M19.99 10.187c0-1.048-.091-1.858-.28-2.65H10.2v4.969h5.62c-.113.92-.725 2.303-2.084 3.233l-.02.124 3.028 2.292.21.02c1.926-1.738 3.037-4.296 3.037-7.33z" fill="#4285F4"/>
  <path d="M10.2 19.931c2.753 0 5.064-.886 6.753-2.414l-3.218-2.436c-.862.587-2.017.997-3.535.997a6.126 6.126 0 0 1-5.801-4.141l-.12.01-3.148 2.38-.041.112c1.677 3.256 5.122 5.492 9.11 5.492z" fill="#34A853"/>
  <path d="M4.397 11.937a6.008 6.008 0 0 1-.34-2.046c0-.714.125-1.407.329-2.046l-.006-.132-3.188-2.42-.104.05A9.79 9.79 0 0 0 .001 9.891c0 1.596.39 3.104 1.087 4.432l3.309-2.386z" fill="#FBBC05"/>
  <path d="M10.2 3.853c1.914 0 3.206.809 3.943 1.484l2.878-2.746C15.253.985 12.953 0 10.199 0 6.211 0 2.766 2.237 1.089 5.492l3.297 2.503A6.152 6.152 0 0 1 10.2 3.853z" fill="#EB4335"/>
</svg>
